<?xml version="1.0" standalone="no"?>
<!DOCTYPE svg PUBLIC "-//W3C//DTD SVG 20010904//EN"
 "http://www.w3.org/TR/2001/REC-SVG-20010904/DTD/svg10.dtd">
<svg version="1.0" xmlns="http://www.w3.org/2000/svg"
 width="800.000000pt" height="239.000000pt" viewBox="0 0 800.000000 239.000000"
 preserveAspectRatio="xMidYMid meet">
<metadata>
Created by potrace 1.15, written by Peter Selinger 2001-2017
</metadata>
<g transform="translate(0.000000,239.000000) scale(0.100000,-0.100000)"
fill="#000000" stroke="none">
<path d="M1095 2325 c-349 -64 -623 -231 -823 -499 -156 -211 -231 -524 -188
-784 80 -479 454 -843 979 -953 144 -31 380 -30 525 0 345 72 634 261 807 526
132 202 178 357 178 595 0 123 -4 160 -26 242 -54 204 -150 372 -297 518 -184
183 -428 307 -695 354 -109 19 -359 20 -460 1z m489 -309 c445 -115 735 -520
663 -927 -60 -335 -310 -593 -667 -686 -133 -35 -344 -37 -472 -4 -178 45
-306 114 -430 230 -303 284 -349 691 -118 1031 39 57 140 161 200 205 223 165
543 223 824 151z"/>
<path d="M1875 1595 c-83 -47 -154 -86 -160 -88 -5 -3 2 -17 16 -33 41 -45 61
-93 67 -159 10 -127 -48 -269 -157 -387 -114 -123 -223 -188 -396 -234 l-90
-25 90 5 c107 5 239 44 342 101 174 97 303 300 303 476 l0 46 152 7 c84 4 154
9 157 11 2 3 -1 30 -8 61 -19 83 -83 202 -160 296 -4 4 -74 -31 -156 -77z"/>
<path d="M1936 1209 c-27 -198 -174 -378 -405 -494 -111 -55 -202 -75 -347
-75 -145 0 -238 17 -348 65 -73 31 -77 32 -56 10 30 -32 152 -90 241 -115 317
-86 605 -9 825 221 33 35 68 75 77 89 14 20 21 23 35 14 9 -6 47 -27 84 -48
l67 -37 35 73 c39 83 66 199 66 288 l0 60 -134 0 -133 0 -7 -51z"/>
<path d="M511 937 c-3 -31 97 -183 171 -263 109 -117 230 -189 395 -236 67
-20 102 -23 243 -23 142 0 176 3 244 23 100 29 205 77 287 132 59 40 249 221
249 238 0 4 -34 26 -76 50 l-77 42 -15 -22 c-28 -42 -147 -154 -207 -195 -82
-55 -147 -87 -235 -115 -104 -32 -313 -33 -443 0 -107 27 -218 77 -300 136
-60 43 -170 151 -214 211 -12 17 -22 26 -22 22z"/>
<path d="M6290 1628 c-113 -18 -213 -108 -260 -236 -12 -31 -26 -104 -32 -164
-25 -240 34 -440 160 -535 127 -96 337 -76 441 42 70 80 108 191 117 345 17
270 -80 486 -238 533 -74 22 -124 26 -188 15z m126 -237 c18 -11 42 -40 55
-68 21 -43 24 -61 24 -183 0 -107 -4 -145 -18 -182 -26 -66 -66 -98 -124 -98
-40 0 -51 5 -83 39 -48 51 -64 121 -58 267 3 83 9 120 25 156 36 80 113 109
179 69z"/>
<path d="M3125 1608 c-3 -7 -4 -224 -3 -483 l3 -470 195 -3 c120 -2 222 1 264
8 60 11 74 18 111 54 53 54 75 116 75 215 0 97 -30 166 -89 209 l-40 29 25 24
c51 47 69 96 69 189 0 92 -18 142 -67 187 -51 48 -82 53 -318 53 -167 0 -222
-3 -225 -12z m358 -197 c36 -14 53 -63 38 -111 -15 -51 -37 -62 -114 -58 l-62
3 -3 65 c-5 103 -1 110 63 110 29 0 65 -4 78 -9z m40 -379 c29 -32 39 -72 26
-109 -17 -51 -45 -64 -130 -61 l-74 3 -3 79 c-2 44 -1 85 2 93 9 21 158 18
179 -5z"/>
<path d="M3890 1135 l0 -485 278 2 277 3 0 115 0 115 -167 3 -168 2 0 365 0
365 -110 0 -110 0 0 -485z"/>
<path d="M4730 1596 c-5 -14 -27 -94 -50 -178 -22 -84 -48 -178 -56 -208 -9
-30 -28 -102 -44 -160 -15 -58 -35 -130 -44 -160 -38 -136 -56 -206 -56 -223
0 -16 10 -17 108 -15 l107 3 16 66 c9 36 19 71 23 78 8 13 213 16 233 3 7 -4
17 -30 23 -57 5 -28 12 -60 15 -72 l5 -22 455 -1 455 0 0 105 0 105 -195 0
c-131 0 -195 3 -195 11 0 5 60 97 134 202 73 106 159 231 190 278 l57 86 -3
89 -3 89 -308 3 -308 2 3 -102 3 -103 168 -3 c92 -1 167 -5 167 -8 0 -3 -40
-63 -89 -132 -48 -70 -134 -194 -190 -275 l-101 -149 0 -89 c0 -49 -3 -89 -7
-89 -5 0 -63 204 -131 453 -68 248 -127 462 -132 475 -9 21 -15 22 -125 22
-113 0 -116 0 -125 -24z m169 -443 c32 -137 33 -133 -43 -133 -42 0 -66 4 -68
12 -3 7 1 40 9 73 7 33 19 89 27 125 8 36 17 74 22 84 8 22 16 -1 53 -161z"/>
<path d="M6840 1135 l0 -486 108 3 107 3 3 193 c2 179 4 192 21 192 43 0 67
-37 136 -214 l69 -176 119 0 120 0 -7 30 c-7 35 -89 247 -116 300 -10 19 -30
46 -44 59 -34 32 -33 41 12 72 20 14 51 50 67 80 28 50 30 61 30 159 0 90 -3
111 -22 147 -58 108 -104 123 -390 123 l-213 0 0 -485z m391 256 c19 -23 25
-83 13 -116 -11 -27 -60 -45 -124 -45 l-60 0 0 96 0 96 76 -4 c65 -3 79 -7 95
-27z"/>
</g>
</svg>
